<?xml version="1.0" encoding="UTF-8" standalone="no"?>
<svg t="1733130932257" class="icon" viewBox="0 0 839.26016 839.26016" version="1.1" p-id="6245" width="163.918"
    height="163.918" id="svg2" xmlns="http://www.w3.org/2000/svg" xmlns:svg="http://www.w3.org/2000/svg">
    <defs id="defs2" />
    <path
        d="m 270.06464,0 h 299.13088 c 180.0448,0 270.06464,90.01984 270.06464,270.06464 v 299.13088 c 0,180.0448 -90.01984,270.06464 -270.06464,270.06464 H 270.06464 C 90.01984,839.26016 0,749.24032 0,569.19552 V 270.06464 C 0,90.01984 90.01984,0 270.06464,0 Z"
        fill="#077ef0" p-id="6246" id="path1" />
    <path
        d="m 559.65696,485.70368 c 24.89856,16.47104 38.0928,26.09152 52.02944,34.048 a 58.38848,58.38848 0 0 1 27.19744,30.47936 58.09664,58.09664 0 0 1 0.49152,40.77056 c -7.43424,31.64672 -67.27168,83.82976 -99.97312,88.82688 -46.6432,7.03488 -65.2288,-26.64448 -84.55168,-58.10688 -10.96704,-18.5088 -19.69664,-37.01248 -34.3808,-65.32608 l -38.0928,67.9168 c -20.0704,35.71712 -45.52704,63.47776 -91.61216,55.51616 -34.93376,-6.66112 -94.7712,-68.28544 -91.98592,-100.11648 a 117.12,117.12 0 0 1 27.32032,-57.73824 c 9.66144,-12.21632 27.87328,-18.50368 48.8704,-30.16704 A 213.84192,213.84192 0 0 0 242.6368,478.30016 C 178.15552,465.53088 149.72416,435.92192 141.3632,370.96448 a 873.3696,873.3696 0 0 1 -13.568,-124.3648 107.6736,107.6736 0 0 1 28.80512,-67.35872 c 8.36096,-8.32512 39.95136,-1.29536 56.48896,7.58784 71.35744,38.12352 119.296,100.49024 164.08576,166.5536 11.89376,17.39776 24.5248,34.6112 41.99424,58.84928 l 41.99936,-58.66496 c 48.128,-68.6592 97.37216,-136.01792 176.34816,-172.10368 41.44128,-18.50368 75.4432,-1.29536 74.33216,44.78464 a 908.032,908.032 0 0 1 -22.11328,177.8432 c -13.19424,55.33184 -65.59744,68.28544 -130.07872,81.6128 z"
        fill="#ffffff" p-id="6247" id="path2" />
</svg>