<?xml version="1.0" encoding="UTF-8" standalone="no"?>
<svg
   t="1733139345753"
   class="icon"
   viewBox="0 0 960 960"
   version="1.1"
   p-id="5802"
   width="187.5"
   height="187.5"
   id="svg1"
   sodipodi:docname="gitee.svg"
   inkscape:version="1.4 (86a8ad7, 2024-10-11)"
   inkscape:export-filename="gitee.svg"
   inkscape:export-xdpi="96"
   inkscape:export-ydpi="96"
   xmlns:inkscape="http://www.inkscape.org/namespaces/inkscape"
   xmlns:sodipodi="http://sodipodi.sourceforge.net/DTD/sodipodi-0.dtd"
   xmlns="http://www.w3.org/2000/svg"
   xmlns:svg="http://www.w3.org/2000/svg">
  <defs
     id="defs1" />
  <sodipodi:namedview
     id="namedview1"
     pagecolor="#ffffff"
     bordercolor="#000000"
     borderopacity="0.25"
     inkscape:showpageshadow="2"
     inkscape:pageopacity="0.0"
     inkscape:pagecheckerboard="0"
     inkscape:deskcolor="#d1d1d1"
     inkscape:clip-to-page="true"
     inkscape:zoom="5.265"
     inkscape:cx="93.637227"
     inkscape:cy="93.732194"
     inkscape:window-width="2160"
     inkscape:window-height="1334"
     inkscape:window-x="-11"
     inkscape:window-y="-11"
     inkscape:window-maximized="1"
     inkscape:current-layer="svg1" />
  <path
     d="M 480,960 C 214.89562,960 0,745.10437 0,480 0,214.89562 214.89562,0 480,0 745.10437,0 960,214.89562 960,480 960,745.10437 745.10437,960 480,960 Z M 722.95219,426.67219 H 450.38344 a 23.712187,23.712187 0 0 0 -23.71125,23.71218 l -0.0244,59.25563 c 0,13.08 10.60781,23.71219 23.68781,23.71219 h 165.96 c 13.10438,0 23.71219,10.60781 23.71219,23.68781 v 11.85562 A 71.112188,71.112188 0 0 1 568.8956,640.00781 H 343.68 A 23.712187,23.712187 0 0 1 319.99219,616.29562 V 391.12781 A 71.112188,71.112188 0 0 1 391.08,320.01562 h 331.82437 a 23.712187,23.712187 0 0 0 23.68782,-23.71125 l 0.0722,-59.25656 A 23.712187,23.712187 0 0 0 722.97562,213.33562 H 391.08 A 177.76875,177.76875 0 0 0 213.31125,391.12781 v 331.82531 c 0,13.10344 10.60875,23.71219 23.71312,23.71219 H 586.65562 A 159.98437,159.98437 0 0 0 746.64,586.68094 V 450.36 a 23.712187,23.712187 0 0 0 -23.71219,-23.68781 z"
     fill="#c71d23"
     p-id="5803"
     id="path1" />
</svg>
