<?xml version="1.0" encoding="UTF-8" standalone="no"?>
<svg t="1733131028050" class="icon" viewBox="0 0 938.66664 896.80313" version="1.1" p-id="11374" width="183.33333"
   height="175.15686" id="svg1" sodipodi:docname="github.svg" inkscape:export-filename="github.svg"
   inkscape:export-xdpi="96" inkscape:export-ydpi="96" inkscape:version="1.4 (86a8ad7, 2024-10-11)"
   xmlns:inkscape="http://www.inkscape.org/namespaces/inkscape"
   xmlns:sodipodi="http://sodipodi.sourceforge.net/DTD/sodipodi-0.dtd" xmlns="http://www.w3.org/2000/svg"
   xmlns:svg="http://www.w3.org/2000/svg">
   <defs id="defs1" />
   <sodipodi:namedview id="namedview1" pagecolor="#ffffff" bordercolor="#000000" borderopacity="0.25"
      inkscape:showpageshadow="2" inkscape:pageopacity="0.0" inkscape:pagecheckerboard="0" inkscape:deskcolor="#d1d1d1"
      inkscape:clip-to-page="true" inkscape:zoom="5.265" inkscape:cx="91.547958" inkscape:cy="91.642925"
      inkscape:window-width="2160" inkscape:window-height="1334" inkscape:window-x="-11" inkscape:window-y="-11"
      inkscape:window-maximized="1" inkscape:current-layer="svg1" />
   <path
      d="M 469.33333,0.02398745 A 464.64,464.64 0 0 0 0,459.54399 a 460.37333,460.37333 0 0 0 320.85333,436.48 c 23.46667,4.26666 32,-9.81334 32,-22.18667 v -78.08 c -130.56,27.73333 -158.29333,-61.44 -158.29333,-61.44 a 122.02667,122.02667 0 0 0 -52.05334,-67.41333 c -42.666657,-28.16 3.41334,-27.73334 3.41334,-27.73334 a 98.56,98.56 0 0 1 71.68,47.36 101.12,101.12 0 0 0 136.53333,37.97334 A 99.413333,99.413333 0 0 1 384,663.06399 C 279.89333,651.54399 170.66666,612.29065 170.66666,436.07732 a 177.06667,177.06667 0 0 1 47.36,-124.16 161.28,161.28 0 0 1 4.69334,-121.17333 c 0,0 39.68,-12.37334 128,46.93333 a 455.68,455.68 0 0 1 234.66666,0 c 89.6,-59.30667 128,-46.93333 128,-46.93333 A 161.28,161.28 0 0 1 718.08,311.91732 177.06667,177.06667 0 0 1 768,435.22399 c 0,176.64 -110.08,215.46666 -213.33334,226.98666 a 106.66667,106.66667 0 0 1 32,85.33334 v 125.86666 c 0,14.93334 8.53334,26.88 32,22.18667 a 460.8,460.8 0 0 0 320,-436.05333 A 464.64,464.64 0 0 0 469.33333,0.02398745"
      fill="#231f20" p-id="11375" id="path1" />
</svg>