<?xml version="1.0" standalone="no"?><!DOCTYPE svg PUBLIC "-//W3C//DTD SVG 1.1//EN" "http://www.w3.org/Graphics/SVG/1.1/DTD/svg11.dtd"><svg t="1733131384024" class="icon" viewBox="0 0 1024 1024" version="1.1" xmlns="http://www.w3.org/2000/svg" p-id="65894" xmlns:xlink="http://www.w3.org/1999/xlink" width="200" height="200"><path d="M512 1024C229.216 1024 0 794.784 0 512S229.216 0 512 0s512 229.216 512 512-229.216 512-512 512z m113.792-529.696l142.112 197.024L768 408.96l-142.208 85.344zM258.016 352L512 522.752 766.624 352H258.016z m-1.92 340.16l142.112-197.856L256 408.96l0.096 283.2z m256.16-112.448l-85.6-56.96-113.76 170.688h398.208l-113.76-170.688L512 579.648l0.416 0.16-0.096-0.032-0.064 0.032v-0.096z" fill="#2F54EB" p-id="65895"></path></svg>