<?xml version="1.0" encoding="UTF-8" standalone="no"?>
<svg t="1733138691696" class="icon" viewBox="0 0 1310.7201 1310.72" version="1.1" p-id="4828" width="256" height="256"
   id="svg3" xmlns="http://www.w3.org/2000/svg" xmlns:svg="http://www.w3.org/2000/svg">
   <defs id="defs3" />
   <path
      d="M 180.52658,607.76261 V 1035.32 l 947.81072,2.1326 V 710.9792 l -135.06288,2.89082 v 189.8465 L 310.85055,903.43217 V 607.24131 Z"
      fill="#ef177a" p-id="4829" id="path1" style="stroke-width:0.925596" />
   <path d="M 180.52658,611.98037 H 312.69879 V 402.41943 L 637.84524,401.0925 V 271.81112 l -457.31866,7.39292 z"
      fill="#2718ed" p-id="4830" id="path2" style="stroke-width:0.925596" />
   <path
      d="m 855.69954,277.8771 c -7.39292,23.0318 -23.0318,83.31257 5.16557,146.01025 5.11818,11.42112 16.25495,35.44812 41.51411,58.43253 33.36294,30.28255 70.28032,39.5237 88.19394,43.78885 63.78764,15.16497 117.86014,-1.4691 140.08634,-9.71506 v 99.80445 c -32.2255,9.14638 -85.5873,19.76186 -150.46486,12.17937 -23.03196,-2.70126 -84.21314,-10.5207 -145.29954,-48.67006 -37.95983,-23.74266 -57.72169,-47.81705 -62.27118,-53.55131 -6.44511,-8.05639 -20.33054,-26.68087 -31.13558,-53.5513 -7.34553,-18.29275 -11.5159,-36.11159 -15.5441,-77.86265 -2.65387,-27.34434 -5.16557,-63.69288 -5.16557,-107.10262 z"
      fill="#fe8136" p-id="4831" id="path3" style="stroke-width:0.925596" />
   <path style="fill:#00ffff;stroke-width:4.73905" id="path5"
      d="m 1258.3682,653.35394 a 607.19287,604.64697 0 0 1 -0.2523,17.42709" />
   <ellipse style="fill:none;stroke:#ed4771;stroke-width:22.9092;stroke-dasharray:none;stroke-opacity:1" id="path4"
      cy="655.66571" cx="655.21777" ry="643.84283" rx="643.49121" />
</svg>